#define bug2_width 55
#define bug2_height 44
static char bug2_bits[] = {
 0x00,0x00,0x00,0x00,0x00,0x00,0x00,0x00,0x00,0x00,0x00,0x00,0x00,0x00,0x00,
 0x00,0x00,0x00,0x00,0x00,0x00,0x00,0x00,0x00,0x00,0x00,0x00,0x00,0x00,0x00,
 0x00,0x00,0x00,0x00,0x00,0x00,0x00,0x00,0x00,0x00,0x00,0x00,0x00,0x00,0x00,
 0x00,0x00,0x00,0x00,0x00,0x00,0x00,0x00,0x30,0x00,0x00,0x00,0x00,0x00,0x00,
 0x2c,0x00,0x00,0x00,0x00,0x00,0x00,0x23,0x00,0x00,0x00,0x00,0x00,0xc0,0x20,
 0x00,0x00,0x00,0x00,0x00,0x20,0x20,0x00,0x00,0x00,0x02,0x00,0x10,0x20,0x00,
 0x00,0x00,0x02,0x00,0x10,0x10,0x00,0x00,0x00,0x84,0x00,0x08,0x08,0x00,0x00,
 0x00,0x84,0x00,0x08,0x06,0x00,0x00,0x00,0x84,0x00,0x86,0x3f,0x00,0x00,0x00,
 0x44,0x00,0x65,0xc0,0x00,0x00,0x00,0x78,0x80,0x1a,0x00,0x03,0x00,0x00,0xce,
 0x40,0x06,0x00,0x0c,0x00,0x00,0x5d,0x31,0x00,0x00,0x10,0x00,0x00,0x09,0x09,
 0x00,0x00,0x20,0x00,0x80,0x00,0x06,0x00,0x00,0x40,0x00,0x80,0x00,0x03,0x00,
 0x00,0x80,0x00,0x80,0x00,0x02,0x00,0x00,0x40,0x00,0x00,0x01,0x85,0x20,0x10,
 0x40,0x00,0x00,0x01,0x89,0x20,0x10,0x20,0x00,0x00,0xc6,0x30,0x41,0x20,0x20,
 0x00,0x00,0x38,0xc0,0x41,0x20,0x1e,0x00,0x00,0x00,0x30,0xff,0xff,0x01,0x00,
 0x00,0x00,0x08,0x92,0x48,0x00,0x00,0x00,0x00,0x00,0x14,0x89,0x00,0x00,0x00,
 0x00,0x00,0x14,0x85,0x00,0x00,0x00,0x00,0x00,0x08,0x06,0x01,0x00,0x00,0x00,
 0x00,0x00,0x00,0x00,0x00,0x00,0x00,0x00,0x00,0x00,0x00,0x00,0x00,0x00,0x00,
 0x00,0x00,0x00,0x00,0x00,0x00,0x00,0x00,0x00,0x00,0x00,0x00,0x00,0x00,0x00,
 0x00,0x00,0x00,0x00,0x00,0x00,0x00,0x00,0x00,0x00,0x00,0x00,0x00,0x00,0x00,
 0x00,0x00,0x00,0x00,0x00,0x00,0x00,0x00,0x00,0x00,0x00,0x00,0x00,0x00,0x00,
 0x00,0x00,0x00,0x00,0x00,0x00,0x00,0x00};
